# 3ds Max Wavefront OBJ Exporter v0.94b - (c)2007 guruware
# File Created: 13.03.2011 13:07:12

#
# object Bip01
#

v  -0.1263 125.7499 0.4592
v  -0.1263 121.3760 4.8331
v  4.2476 121.3760 0.4592
v  -0.1263 121.3760 -3.9147
v  -4.5002 121.3760 0.4592
v  -0.1263 117.0021 0.4592
# 6 vertices

vn -0.0000 1.0000 0.0000
vn 0.0000 0.0000 1.0000
vn 1.0000 0.0000 -0.0000
vn -0.0000 -0.0000 -1.0000
vn -1.0000 -0.0000 0.0000
vn 0.0000 -1.0000 -0.0000
# 6 vertex normals

g Bip01
f 1//1 2//2 3//3 
f 1//1 3//3 4//4 
f 1//1 4//4 5//5 
f 1//1 5//5 2//2 
f 6//6 5//5 4//4 
f 6//6 4//4 3//3 
f 6//6 3//3 2//2 
f 6//6 2//2 5//5 
# 8 faces

